<svg width="1056" height="1097" viewBox="0 0 1056 1097" fill="none" xmlns="http://www.w3.org/2000/svg">
<path d="M472.21 461.178L549.013 175.122L561.902 127.115C570.903 141.009 590.324 200.767 596 328.653C601.676 456.539 515.838 470.289 472.21 461.178Z" fill="#FFFDFD"/>
<path d="M549.013 175.122L472.21 461.178M472.21 461.178C515.838 470.289 601.676 456.539 596 328.653C590.324 200.767 570.903 141.009 561.902 127.115L472.21 461.178Z" stroke="#1571C6" stroke-width="30"/>
<path d="M296.036 461.178L219.233 175.122L206.344 127.115C197.343 141.009 177.922 200.767 172.246 328.653C166.57 456.539 252.408 470.289 296.036 461.178Z" fill="#FFFDFD"/>
<path d="M219.233 175.122L296.036 461.178M296.036 461.178C252.408 470.289 166.57 456.539 172.246 328.653C177.922 200.767 197.343 141.009 206.344 127.115L296.036 461.178Z" stroke="#1571C6" stroke-width="30"/>
<path d="M639.139 662.557L631.507 520.238L630.227 496.354C647.545 500.766 696.349 523.534 753.025 579.304C809.7 635.073 700.716 658.043 639.139 662.557Z" fill="#FFFDFD"/>
<path d="M631.507 520.238L639.139 662.557M639.139 662.557C700.716 658.043 809.7 635.073 753.025 579.304C696.349 523.534 647.545 500.766 630.227 496.354L639.139 662.557Z" stroke="#1571C6" stroke-width="30"/>
<path d="M152.981 652.219L149.077 509.75L148.422 485.84C131.517 491.639 84.7141 518.279 32.7354 578.45C-19.2433 638.621 91.2413 652.701 152.981 652.219Z" fill="#FFFDFD"/>
<path d="M149.077 509.75L152.981 652.219M152.981 652.219C91.2413 652.701 -19.2433 638.621 32.7354 578.45C84.7141 518.279 131.517 491.639 148.422 485.84L152.981 652.219Z" stroke="#1571C6" stroke-width="30"/>
<rect x="129" y="356" width="510" height="680" rx="255" fill="white" stroke="#1571C6" stroke-width="30"/>
<rect x="56" y="768" width="656" height="314" rx="157" fill="white" stroke="#1571C6" stroke-width="30"/>
<rect x="270" y="514" width="61" height="124" rx="30.5" fill="#030303"/>
<rect x="270" y="895" width="53" height="108" rx="26.5" fill="#1571C6"/>
<rect x="428" y="895" width="53" height="108" rx="26.5" fill="#1571C6"/>
<ellipse cx="504.5" cy="571.5" rx="149.5" ry="153.5" fill="#1571C6" fill-opacity="0.6"/>
<rect x="454" y="514" width="61" height="124" rx="30.5" fill="black"/>
<path d="M705.002 248.042L706.038 290.258C716.316 288.77 742.313 291.236 764.077 313C789.076 337.999 792.294 364.748 792.8 377.02L831.468 374.509C830.933 355.835 826.922 315.546 791.629 280.253C761.042 249.666 721.133 246.035 705.002 248.042Z" fill="#1571C6"/>
<path d="M701.333 159.072L703.168 203.557C723.563 202.382 766.306 196.101 818.51 248.305C867.038 296.833 871.918 346.816 871.544 371.934L911.62 369.359C907.414 335.739 907.762 275.787 846.735 214.76C785.707 153.732 732.378 159.722 701.333 159.072Z" fill="#1571C6"/>
<path d="M697.475 65.5L699.499 114.587C729.618 109.9 806.475 117.142 872.943 183.611C939.411 250.079 955.591 335.873 955.373 370.461L1000.41 368.431C998.453 326.769 976.006 224.609 901.84 149.267C827.674 73.9242 734.694 62.0296 697.475 65.5Z" fill="#1571C6"/>
<path d="M705.002 248.042L706.038 290.258C716.316 288.77 742.313 291.236 764.077 313C789.076 337.999 792.294 364.748 792.8 377.02L831.468 374.509C830.933 355.835 826.922 315.546 791.629 280.253C761.042 249.666 721.133 246.035 705.002 248.042Z" stroke="#1571C6"/>
<path d="M701.333 159.072L703.168 203.557C723.563 202.382 766.306 196.101 818.51 248.305C867.038 296.833 871.918 346.816 871.544 371.934L911.62 369.359C907.414 335.739 907.762 275.787 846.735 214.76C785.707 153.732 732.378 159.722 701.333 159.072Z" stroke="#1571C6"/>
<path d="M697.475 65.5L699.499 114.587C729.618 109.9 806.475 117.142 872.943 183.611C939.411 250.079 955.591 335.873 955.373 370.461L1000.41 368.431C998.453 326.769 976.006 224.609 901.84 149.267C827.674 73.9242 734.694 62.0296 697.475 65.5Z" stroke="#1571C6"/>
<circle r="38.8052" transform="matrix(0.707107 0.707107 -0.643815 0.765181 721.112 360.72)" fill="#1571C6"/>
<circle r="38.8052" transform="matrix(0.707107 0.707107 -0.643815 0.765181 721.112 360.72)" stroke="#1571C6"/>
</svg>
